<?xml version="1.0" standalone="no"?>
<!DOCTYPE svg PUBLIC "-//W3C//DTD SVG 20010904//EN"
 "http://www.w3.org/TR/2001/REC-SVG-20010904/DTD/svg10.dtd">
<svg version="1.0" xmlns="http://www.w3.org/2000/svg"
 width="275.000000pt" height="275.000000pt" viewBox="0 0 275.000000 275.000000"
 preserveAspectRatio="xMidYMid meet">
<metadata>
Created by potrace 1.11, written by Peter Selinger 2001-2013
</metadata>
<g transform="translate(0.000000,275.000000) scale(0.100000,-0.100000)"
fill="#000000" stroke="none">
<path d="M1551 2646 c-13 -47 -24 -93 -26 -103 -2 -10 -4 -18 -5 -18 -1 0 -3
-7 -5 -15 -26 -118 -150 -456 -219 -602 -53 -111 -147 -282 -157 -286 -5 -2
-9 -9 -9 -14 0 -6 -24 -52 -53 -102 -71 -121 -76 -135 -36 -102 44 37 126 58
212 54 62 -2 140 -20 172 -39 6 -4 21 -9 35 -12 24 -6 200 -103 210 -116 3 -3
23 -18 45 -33 22 -15 60 -45 85 -67 41 -36 46 -38 52 -20 14 37 -3 260 -27
359 -9 36 -17 74 -19 85 -1 11 -5 27 -8 35 -5 13 -103 404 -113 450 -2 8 -11
51 -21 95 -9 44 -18 91 -18 105 -1 14 -4 27 -7 30 -4 3 -9 24 -12 47 -4 22 -8
52 -11 65 -5 23 -14 75 -21 133 -3 17 -7 57 -10 89 -2 33 -6 61 -8 63 -2 2
-14 -35 -26 -81z"/>
<path d="M1143 1419 c-46 -9 -113 -40 -132 -63 -13 -15 -12 -16 139 -155 52
-48 56 -49 70 -32 17 21 66 50 56 32 -5 -8 0 -8 20 -1 31 12 175 6 203 -9 10
-6 21 -8 24 -4 4 3 13 1 20 -5 8 -7 16 -9 19 -6 6 5 140 -26 148 -35 7 -8 70
-8 70 0 0 3 -16 19 -36 35 -20 16 -41 34 -48 40 -6 6 -52 36 -101 67 -50 31
-95 60 -100 64 -6 4 -17 9 -24 11 -8 2 -30 10 -50 19 -42 19 -44 19 -97 32
-58 15 -132 18 -181 10z"/>
<path d="M2108 883 c-38 -45 -100 -255 -80 -275 6 -6 15 0 25 21 9 17 11 29 6
25 -23 -14 24 154 56 203 11 16 22 22 32 19 13 -5 14 -4 3 9 -16 19 -24 19
-42 -2z"/>
<path d="M616 834 c-22 -22 -66 -108 -80 -159 -7 -25 -20 -44 -34 -50 -36 -16
-20 -26 48 -30 36 -2 76 -5 90 -7 17 -2 25 2 25 11 0 10 -12 15 -35 17 -19 0
-47 2 -63 3 -22 1 -26 4 -18 19 5 9 21 48 37 86 40 100 92 143 79 66 -7 -40 7
-57 19 -24 11 30 7 74 -8 74 -8 0 -21 3 -29 6 -8 3 -22 -2 -31 -12z"/>
<path d="M1156 843 c-4 -4 -24 -8 -44 -10 -44 -2 -122 -22 -140 -36 -8 -7 -11
-20 -7 -36 10 -40 23 -47 22 -11 -2 30 2 34 41 47 24 9 46 13 48 10 8 -7 -37
-129 -54 -146 -15 -16 -12 -63 5 -68 6 -2 14 11 18 29 20 94 57 188 73 189 25
1 65 9 70 14 6 5 -7 25 -17 25 -4 0 -11 -3 -15 -7z"/>
<path d="M1786 841 c-3 -5 -28 -14 -56 -21 -57 -14 -64 -21 -54 -52 7 -22 7
-22 14 -2 9 23 90 60 90 41 0 -26 -34 -97 -46 -97 -8 0 -13 -8 -12 -17 3 -36
-2 -53 -16 -53 -16 0 -28 -37 -15 -46 15 -9 27 4 44 50 15 40 21 44 54 48 66
6 71 2 65 -46 -8 -53 10 -69 25 -24 13 38 14 41 2 33 -12 -7 3 52 30 122 12
29 28 54 37 56 15 4 15 5 -1 12 -26 11 -43 -9 -63 -75 l-19 -60 -47 0 c-52 0
-56 6 -34 48 20 39 30 92 17 92 -5 0 -12 -4 -15 -9z"/>
<path d="M845 804 c-8 -20 -15 -40 -15 -44 0 -4 -7 -11 -16 -14 -8 -3 -12 -10
-9 -16 4 -6 1 -35 -5 -66 -15 -73 -2 -91 38 -49 l27 28 -27 -17 c-32 -19 -32
-17 -16 53 10 45 15 51 37 52 18 1 20 3 8 6 -19 5 -16 30 9 69 12 21 10 34 -8
34 -4 0 -15 -16 -23 -36z"/>
<path d="M2148 773 c-9 -10 -30 -62 -48 -117 -42 -128 -55 -206 -35 -216 6 -3
13 18 16 50 4 30 16 80 28 110 20 55 74 130 92 130 28 0 -11 -107 -43 -119
-18 -7 -19 -9 -5 -14 27 -10 42 1 57 41 23 62 23 89 1 102 -18 9 -25 6 -51
-22 l-31 -33 18 37 c9 21 25 41 36 44 16 5 17 8 6 15 -20 12 -24 11 -41 -8z"/>
<path d="M715 723 c-14 -15 -26 -32 -26 -38 -6 -46 -2 -69 13 -79 15 -9 24 -5
50 23 l33 34 -38 -23 c-43 -25 -51 -23 -41 14 5 20 12 26 34 26 28 0 40 15 40
51 0 28 -35 24 -65 -8z m45 -3 c0 -20 -25 -38 -37 -26 -5 5 24 46 34 46 1 0 3
-9 3 -20z"/>
<path d="M1177 724 c-41 -44 -43 -124 -3 -124 7 0 23 11 36 25 24 25 24 25 32
5 13 -35 37 -36 71 0 l32 33 -38 -23 c-43 -25 -52 -22 -43 15 5 18 13 25 29
25 29 0 47 18 47 47 0 17 -6 23 -20 23 -23 0 -69 -46 -70 -70 0 -19 -77 -64
-85 -50 -12 19 6 50 29 50 28 0 46 18 46 47 0 32 -33 30 -63 -3z m43 -4 c0
-20 -25 -38 -37 -26 -5 5 24 46 34 46 1 0 3 -9 3 -20z m92 -22 c-21 -21 -32
-3 -15 22 16 22 18 23 21 6 2 -10 -1 -23 -6 -28z"/>
<path d="M1360 735 c-11 -13 -10 -14 4 -9 14 6 16 2 10 -22 -4 -16 -13 -44
-20 -63 -17 -40 -17 -41 -4 -41 20 0 46 59 46 101 -1 46 -15 59 -36 34z"/>
<path d="M1427 722 c-37 -38 -34 -53 3 -17 36 35 39 20 11 -55 -23 -59 -10
-77 17 -23 23 47 27 97 9 112 -10 8 -20 4 -40 -17z"/>
<path d="M1561 732 c-14 -26 -7 -42 10 -25 6 6 9 19 7 29 -3 17 -5 17 -17 -4z"/>
<path d="M1958 735 c-7 -9 -19 -22 -26 -30 -20 -23 -20 -85 0 -98 15 -10 23
-6 50 22 l33 34 -36 -22 c-20 -11 -39 -21 -43 -21 -10 0 -2 52 9 55 5 2 22 6
38 9 22 5 27 12 27 36 0 23 -5 30 -20 30 -10 0 -25 -7 -32 -15z m24 -37 c-21
-21 -32 -3 -15 22 16 22 18 23 21 6 2 -10 -1 -23 -6 -28z"/>
<path d="M1526 727 c-17 -12 -17 -18 -6 -51 15 -47 8 -66 -27 -67 -28 0 -28 0
-5 -11 19 -10 27 -8 44 10 20 19 20 25 9 62 -9 32 -10 45 0 56 14 18 8 18 -15
1z"/>
</g>
</svg>
